<svg xmlns="http://www.w3.org/2000/svg" xmlns:xlink="http://www.w3.org/1999/xlink" width="278" zoomAndPan="magnify" viewBox="0 0 208.5 30.000001" height="40" preserveAspectRatio="xMidYMid meet" version="1.0"><defs><g/></defs><g fill="#ffffff" fill-opacity="1"><g transform="translate(12.41525, 27.001521)"><g><path d="M 25.28125 -18.421875 C 27.539062 -18.421875 29.335938 -17.734375 30.671875 -16.359375 C 32.015625 -14.984375 32.6875 -13.078125 32.6875 -10.640625 L 32.6875 0 L 27.140625 0 L 27.140625 -9.890625 C 27.140625 -11.066406 26.828125 -11.972656 26.203125 -12.609375 C 25.585938 -13.253906 24.734375 -13.578125 23.640625 -13.578125 C 22.554688 -13.578125 21.703125 -13.253906 21.078125 -12.609375 C 20.460938 -11.972656 20.15625 -11.066406 20.15625 -9.890625 L 20.15625 0 L 14.59375 0 L 14.59375 -9.890625 C 14.59375 -11.066406 14.28125 -11.972656 13.65625 -12.609375 C 13.039062 -13.253906 12.191406 -13.578125 11.109375 -13.578125 C 10.015625 -13.578125 9.15625 -13.253906 8.53125 -12.609375 C 7.914062 -11.972656 7.609375 -11.066406 7.609375 -9.890625 L 7.609375 0 L 2.03125 0 L 2.03125 -18.21875 L 7.609375 -18.21875 L 7.609375 -15.9375 C 8.171875 -16.695312 8.910156 -17.300781 9.828125 -17.75 C 10.742188 -18.195312 11.78125 -18.421875 12.9375 -18.421875 C 14.300781 -18.421875 15.519531 -18.125 16.59375 -17.53125 C 17.675781 -16.945312 18.523438 -16.109375 19.140625 -15.015625 C 19.765625 -16.023438 20.617188 -16.84375 21.703125 -17.46875 C 22.796875 -18.101562 23.988281 -18.421875 25.28125 -18.421875 Z M 25.28125 -18.421875 "/></g></g></g><g fill="#ffffff" fill-opacity="1"><g transform="translate(47.00302, 27.001521)"><g><path d="M 0.921875 -9.140625 C 0.921875 -11.015625 1.269531 -12.660156 1.96875 -14.078125 C 2.675781 -15.492188 3.640625 -16.582031 4.859375 -17.34375 C 6.078125 -18.101562 7.441406 -18.484375 8.953125 -18.484375 C 10.148438 -18.484375 11.242188 -18.234375 12.234375 -17.734375 C 13.222656 -17.234375 14 -16.554688 14.5625 -15.703125 L 14.5625 -24.171875 L 20.15625 -24.171875 L 20.15625 0 L 14.5625 0 L 14.5625 -2.609375 C 14.039062 -1.742188 13.296875 -1.046875 12.328125 -0.515625 C 11.359375 0.00390625 10.234375 0.265625 8.953125 0.265625 C 7.441406 0.265625 6.078125 -0.117188 4.859375 -0.890625 C 3.640625 -1.671875 2.675781 -2.769531 1.96875 -4.1875 C 1.269531 -5.613281 0.921875 -7.265625 0.921875 -9.140625 Z M 14.5625 -9.109375 C 14.5625 -10.503906 14.175781 -11.601562 13.40625 -12.40625 C 12.632812 -13.21875 11.691406 -13.625 10.578125 -13.625 C 9.472656 -13.625 8.53125 -13.222656 7.75 -12.421875 C 6.976562 -11.628906 6.59375 -10.535156 6.59375 -9.140625 C 6.59375 -7.742188 6.976562 -6.640625 7.75 -5.828125 C 8.53125 -5.015625 9.472656 -4.609375 10.578125 -4.609375 C 11.691406 -4.609375 12.632812 -5.007812 13.40625 -5.8125 C 14.175781 -6.613281 14.5625 -7.710938 14.5625 -9.109375 Z M 14.5625 -9.109375 "/></g></g></g><g fill="#ffffff" fill-opacity="1"><g transform="translate(69.179698, 27.001521)"><g><path d="M 28.1875 -18.21875 L 23.25 0 L 17.078125 0 L 14.203125 -11.828125 L 11.234375 0 L 5.09375 0 L 0.125 -18.21875 L 5.71875 -18.21875 L 8.296875 -5.1875 L 11.359375 -18.21875 L 17.28125 -18.21875 L 20.375 -5.25 L 22.921875 -18.21875 Z M 28.1875 -18.21875 "/></g></g></g><g fill="#ffffff" fill-opacity="1"><g transform="translate(97.463929, 27.001521)"><g><path d="M 4.828125 -20.109375 C 3.847656 -20.109375 3.046875 -20.394531 2.421875 -20.96875 C 1.804688 -21.550781 1.5 -22.269531 1.5 -23.125 C 1.5 -23.988281 1.804688 -24.707031 2.421875 -25.28125 C 3.046875 -25.863281 3.847656 -26.15625 4.828125 -26.15625 C 5.785156 -26.15625 6.570312 -25.863281 7.1875 -25.28125 C 7.8125 -24.707031 8.125 -23.988281 8.125 -23.125 C 8.125 -22.269531 7.8125 -21.550781 7.1875 -20.96875 C 6.570312 -20.394531 5.785156 -20.109375 4.828125 -20.109375 Z M 7.609375 -18.21875 L 7.609375 0 L 2.03125 0 L 2.03125 -18.21875 Z M 7.609375 -18.21875 "/></g></g></g><g fill="#ffffff" fill-opacity="1"><g transform="translate(115.844086, 27.001521)"><g><path d="M 6.140625 -15.453125 L 6.140625 -4.890625 C 6.140625 -4.023438 6.320312 -3.410156 6.6875 -3.046875 C 7.0625 -2.691406 7.707031 -2.515625 8.625 -2.515625 L 10.8125 -2.515625 L 10.8125 0 L 8.125 0 C 6.476562 0 5.238281 -0.378906 4.40625 -1.140625 C 3.582031 -1.898438 3.171875 -3.148438 3.171875 -4.890625 L 3.171875 -15.453125 L 0.84375 -15.453125 L 0.84375 -17.890625 L 3.171875 -17.890625 L 3.171875 -22.40625 L 6.140625 -22.40625 L 6.140625 -17.890625 L 10.8125 -17.890625 L 10.8125 -15.453125 Z M 6.140625 -15.453125 "/></g></g></g><g fill="#ffffff" fill-opacity="1"><g transform="translate(127.732606, 27.001521)"><g><path d="M 18.84375 -9.640625 C 18.84375 -9.066406 18.8125 -8.46875 18.75 -7.84375 L 4.4375 -7.84375 C 4.550781 -6.070312 5.15625 -4.691406 6.25 -3.703125 C 7.351562 -2.710938 8.6875 -2.21875 10.25 -2.21875 C 11.539062 -2.21875 12.613281 -2.515625 13.46875 -3.109375 C 14.332031 -3.710938 14.9375 -4.515625 15.28125 -5.515625 L 18.484375 -5.515625 C 18.003906 -3.796875 17.046875 -2.394531 15.609375 -1.3125 C 14.171875 -0.238281 12.382812 0.296875 10.25 0.296875 C 8.550781 0.296875 7.03125 -0.0820312 5.6875 -0.84375 C 4.351562 -1.601562 3.304688 -2.6875 2.546875 -4.09375 C 1.785156 -5.5 1.40625 -7.128906 1.40625 -8.984375 C 1.40625 -10.828125 1.773438 -12.445312 2.515625 -13.84375 C 3.253906 -15.238281 4.289062 -16.3125 5.625 -17.0625 C 6.96875 -17.8125 8.507812 -18.1875 10.25 -18.1875 C 11.945312 -18.1875 13.445312 -17.816406 14.75 -17.078125 C 16.0625 -16.335938 17.070312 -15.316406 17.78125 -14.015625 C 18.488281 -12.722656 18.84375 -11.265625 18.84375 -9.640625 Z M 15.765625 -10.25 C 15.765625 -11.382812 15.515625 -12.359375 15.015625 -13.171875 C 14.515625 -13.992188 13.832031 -14.613281 12.96875 -15.03125 C 12.113281 -15.457031 11.164062 -15.671875 10.125 -15.671875 C 8.625 -15.671875 7.34375 -15.191406 6.28125 -14.234375 C 5.226562 -13.273438 4.625 -11.945312 4.46875 -10.25 Z M 15.765625 -10.25 "/></g></g></g><g fill="#ffffff" fill-opacity="1"><g transform="translate(147.982287, 27.001521)"><g><path d="M 1.40625 -8.984375 C 1.40625 -10.828125 1.773438 -12.441406 2.515625 -13.828125 C 3.253906 -15.210938 4.28125 -16.285156 5.59375 -17.046875 C 6.914062 -17.804688 8.425781 -18.1875 10.125 -18.1875 C 12.320312 -18.1875 14.132812 -17.648438 15.5625 -16.578125 C 16.988281 -15.515625 17.929688 -14.035156 18.390625 -12.140625 L 15.1875 -12.140625 C 14.882812 -13.234375 14.289062 -14.09375 13.40625 -14.71875 C 12.519531 -15.351562 11.425781 -15.671875 10.125 -15.671875 C 8.425781 -15.671875 7.050781 -15.085938 6 -13.921875 C 4.957031 -12.765625 4.4375 -11.117188 4.4375 -8.984375 C 4.4375 -6.828125 4.957031 -5.160156 6 -3.984375 C 7.050781 -2.804688 8.425781 -2.21875 10.125 -2.21875 C 11.425781 -2.21875 12.507812 -2.519531 13.375 -3.125 C 14.25 -3.738281 14.851562 -4.613281 15.1875 -5.75 L 18.390625 -5.75 C 17.910156 -3.914062 16.953125 -2.445312 15.515625 -1.34375 C 14.078125 -0.25 12.28125 0.296875 10.125 0.296875 C 8.425781 0.296875 6.914062 -0.0820312 5.59375 -0.84375 C 4.28125 -1.601562 3.253906 -2.679688 2.515625 -4.078125 C 1.773438 -5.472656 1.40625 -7.109375 1.40625 -8.984375 Z M 1.40625 -8.984375 "/></g></g></g><g fill="#ffffff" fill-opacity="1"><g transform="translate(167.807376, 27.001521)"><g><path d="M 11.390625 -18.21875 C 12.742188 -18.21875 13.960938 -17.925781 15.046875 -17.34375 C 16.140625 -16.769531 16.992188 -15.90625 17.609375 -14.75 C 18.234375 -13.601562 18.546875 -12.203125 18.546875 -10.546875 L 18.546875 0 L 15.609375 0 L 15.609375 -10.125 C 15.609375 -11.90625 15.160156 -13.269531 14.265625 -14.21875 C 13.378906 -15.164062 12.160156 -15.640625 10.609375 -15.640625 C 9.046875 -15.640625 7.800781 -15.148438 6.875 -14.171875 C 5.945312 -13.191406 5.484375 -11.765625 5.484375 -9.890625 L 5.484375 0 L 2.515625 0 L 2.515625 -24.171875 L 5.484375 -24.171875 L 5.484375 -15.34375 C 6.078125 -16.257812 6.890625 -16.96875 7.921875 -17.46875 C 8.953125 -17.96875 10.109375 -18.21875 11.390625 -18.21875 Z M 11.390625 -18.21875 "/></g></g></g><g fill="#ff3131" fill-opacity="1"><g transform="translate(188.736037, 27.001521)"><g><path d="M 3.46875 0.203125 C 2.894531 0.203125 2.410156 0.00390625 2.015625 -0.390625 C 1.628906 -0.785156 1.4375 -1.265625 1.4375 -1.828125 C 1.4375 -2.390625 1.628906 -2.867188 2.015625 -3.265625 C 2.410156 -3.660156 2.894531 -3.859375 3.46875 -3.859375 C 4.007812 -3.859375 4.46875 -3.660156 4.84375 -3.265625 C 5.226562 -2.867188 5.421875 -2.390625 5.421875 -1.828125 C 5.421875 -1.265625 5.226562 -0.785156 4.84375 -0.390625 C 4.46875 0.00390625 4.007812 0.203125 3.46875 0.203125 Z M 3.46875 0.203125 "/></g></g></g></svg>